<?xml version="1.0" standalone="no"?>
<!DOCTYPE svg PUBLIC "-//W3C//DTD SVG 20010904//EN"
 "http://www.w3.org/TR/2001/REC-SVG-20010904/DTD/svg10.dtd">
<svg version="1.0" xmlns="http://www.w3.org/2000/svg"
 width="2658.000000pt" height="2658.000000pt" viewBox="0 0 2658.000000 2658.000000"
 preserveAspectRatio="xMidYMid meet">
<metadata>
Created by potrace 1.15, written by Peter Selinger 2001-2017
</metadata>
<g transform="translate(0.000000,2658.000000) scale(0.100000,-0.100000)"
fill="#000000" stroke="none">
<path d="M0 13290 l0 -13290 13290 0 13290 0 0 13290 0 13290 -13290 0 -13290
0 0 -13290z m14625 9350 c271 -13 412 -27 453 -47 79 -38 243 -261 402 -546
404 -728 916 -2020 955 -2407 8 -81 -12 -122 -77 -163 -93 -58 -261 -77 -503
-58 -378 31 -441 27 -470 -29 -29 -56 -35 -172 -36 -735 -1 -313 -5 -858 -9
-1210 -8 -714 -8 -713 -86 -936 -257 -739 -1077 -1413 -1964 -1614 -276 -63
-605 -77 -830 -37 -591 107 -1177 491 -1636 1072 -229 290 -409 633 -478 909
-61 240 -60 419 2 493 51 60 89 69 345 78 318 11 477 45 670 141 178 89 305
188 641 498 460 424 641 716 736 1190 94 467 103 757 91 2686 -2 374 0 644 5
664 7 26 17 37 39 43 87 26 1257 30 1750 8z m-6905 -35 c69 -65 66 -46 80
-625 23 -1006 14 -1970 -20 -2089 -6 -21 -61 -86 -161 -189 -1042 -1079 -1707
-2472 -1868 -3917 -31 -278 -41 -462 -41 -763 0 -818 127 -1576 407 -2426 57
-175 65 -206 61 -258 -10 -140 -134 -195 -302 -134 -221 80 -471 307 -1026
931 -1443 1622 -2125 3364 -1989 5085 98 1249 621 2483 1563 3690 130 167 322
396 460 548 67 73 130 144 141 158 l19 24 1322 -2 1323 -3 31 -30z m12885
-161 c185 -122 483 -475 790 -934 685 -1022 1294 -2377 1684 -3740 432 -1513
627 -3228 505 -4450 -134 -1351 -672 -2766 -1569 -4130 -931 -1417 -2212
-2713 -3640 -3682 -675 -458 -1424 -854 -2085 -1101 -324 -122 -666 -223 -945
-281 -606 -127 -1309 -219 -2040 -268 -257 -17 -1211 -17 -1450 0 -943 68
-1688 200 -2465 436 -1426 432 -2737 1203 -3660 2153 -360 370 -665 792 -611
846 17 17 126 -5 424 -84 1249 -331 2087 -486 3057 -564 675 -54 1422 -54
2070 0 2324 195 4443 1051 6260 2529 669 545 1335 1206 1804 1791 890 1110
1516 2383 1871 3805 180 719 278 1377 337 2245 20 299 17 1381 -5 1715 -57
852 -145 1548 -312 2465 -35 193 -89 485 -119 650 -30 165 -60 344 -66 397
-15 118 -10 225 11 239 27 19 95 3 154 -37z"/>
</g>
</svg>
